<?xml version="1.0" encoding="UTF-8" standalone="no"?>
<!DOCTYPE svg PUBLIC "-//W3C//DTD SVG 1.1//EN" "http://www.w3.org/Graphics/SVG/1.1/DTD/svg11.dtd">
<svg width="100%" height="100%" viewBox="0 0 640 400" version="1.1" xmlns="http://www.w3.org/2000/svg" xmlns:xlink="http://www.w3.org/1999/xlink" xml:space="preserve" xmlns:serif="http://www.serif.com/" style="fill-rule:evenodd;clip-rule:evenodd;stroke-linejoin:round;">
    <rect x="0" y="0" width="640" height="400" style="fill:white;"/>
    <rect x="79.398" y="11.811" width="548.792" height="346.821" style="fill:white;"/>
    <path d="M94.93,358.633L94.93,11.811" style="fill:none;fill-rule:nonzero;stroke:black;stroke-opacity:0.1;stroke-width:0.5px;"/>
    <path d="M122.745,358.633L122.745,11.811" style="fill:none;fill-rule:nonzero;stroke:black;stroke-opacity:0.1;stroke-width:0.5px;"/>
    <path d="M148.766,358.633L148.766,11.811" style="fill:none;fill-rule:nonzero;stroke:black;stroke-opacity:0.1;stroke-width:0.5px;"/>
    <path d="M176.582,358.633L176.582,11.811" style="fill:none;fill-rule:nonzero;stroke:black;stroke-opacity:0.1;stroke-width:0.5px;"/>
    <path d="M203.5,358.633L203.5,11.811" style="fill:none;fill-rule:nonzero;stroke:black;stroke-opacity:0.1;stroke-width:0.5px;"/>
    <path d="M231.315,358.633L231.315,11.811" style="fill:none;fill-rule:nonzero;stroke:black;stroke-opacity:0.1;stroke-width:0.5px;"/>
    <path d="M258.235,358.633L258.235,11.811" style="fill:none;fill-rule:nonzero;stroke:black;stroke-opacity:0.1;stroke-width:0.5px;"/>
    <path d="M286.05,358.633L286.05,11.811" style="fill:none;fill-rule:nonzero;stroke:black;stroke-opacity:0.1;stroke-width:0.5px;"/>
    <path d="M313.865,358.633L313.865,11.811" style="fill:none;fill-rule:nonzero;stroke:black;stroke-opacity:0.1;stroke-width:0.5px;"/>
    <path d="M340.783,358.633L340.783,11.811" style="fill:none;fill-rule:nonzero;stroke:black;stroke-opacity:0.1;stroke-width:0.5px;"/>
    <path d="M368.598,358.633L368.598,11.811" style="fill:none;fill-rule:nonzero;stroke:black;stroke-opacity:0.1;stroke-width:0.5px;"/>
    <path d="M395.518,358.633L395.518,11.811" style="fill:none;fill-rule:nonzero;stroke:black;stroke-opacity:0.1;stroke-width:0.5px;"/>
    <path d="M423.333,358.633L423.333,11.811" style="fill:none;fill-rule:nonzero;stroke:black;stroke-opacity:0.1;stroke-width:0.5px;"/>
    <path d="M451.147,358.633L451.147,11.811" style="fill:none;fill-rule:nonzero;stroke:black;stroke-opacity:0.1;stroke-width:0.5px;"/>
    <path d="M476.272,358.633L476.272,11.811" style="fill:none;fill-rule:nonzero;stroke:black;stroke-opacity:0.1;stroke-width:0.5px;"/>
    <path d="M504.087,358.633L504.087,11.811" style="fill:none;fill-rule:nonzero;stroke:black;stroke-opacity:0.1;stroke-width:0.5px;"/>
    <path d="M531.005,358.633L531.005,11.811" style="fill:none;fill-rule:nonzero;stroke:black;stroke-opacity:0.1;stroke-width:0.5px;"/>
    <path d="M558.82,358.633L558.82,11.811" style="fill:none;fill-rule:nonzero;stroke:black;stroke-opacity:0.1;stroke-width:0.5px;"/>
    <path d="M585.74,358.633L585.74,11.811" style="fill:none;fill-rule:nonzero;stroke:black;stroke-opacity:0.1;stroke-width:0.5px;"/>
    <path d="M79.398,358.633L628.19,358.633" style="fill:none;fill-rule:nonzero;stroke:black;stroke-width:1px;"/>
    <path d="M94.93,358.633L94.93,354.47" style="fill:none;fill-rule:nonzero;stroke:black;stroke-width:1px;"/>
    <path d="M122.745,358.633L122.745,354.47" style="fill:none;fill-rule:nonzero;stroke:black;stroke-width:1px;"/>
    <path d="M148.766,358.633L148.766,354.47" style="fill:none;fill-rule:nonzero;stroke:black;stroke-width:1px;"/>
    <path d="M176.582,358.633L176.582,354.47" style="fill:none;fill-rule:nonzero;stroke:black;stroke-width:1px;"/>
    <path d="M203.5,358.633L203.5,354.47" style="fill:none;fill-rule:nonzero;stroke:black;stroke-width:1px;"/>
    <path d="M231.315,358.633L231.315,354.47" style="fill:none;fill-rule:nonzero;stroke:black;stroke-width:1px;"/>
    <path d="M258.235,358.633L258.235,354.47" style="fill:none;fill-rule:nonzero;stroke:black;stroke-width:1px;"/>
    <path d="M286.05,358.633L286.05,354.47" style="fill:none;fill-rule:nonzero;stroke:black;stroke-width:1px;"/>
    <path d="M313.865,358.633L313.865,354.47" style="fill:none;fill-rule:nonzero;stroke:black;stroke-width:1px;"/>
    <path d="M340.783,358.633L340.783,354.47" style="fill:none;fill-rule:nonzero;stroke:black;stroke-width:1px;"/>
    <path d="M368.598,358.633L368.598,354.47" style="fill:none;fill-rule:nonzero;stroke:black;stroke-width:1px;"/>
    <path d="M395.518,358.633L395.518,354.47" style="fill:none;fill-rule:nonzero;stroke:black;stroke-width:1px;"/>
    <path d="M423.333,358.633L423.333,354.47" style="fill:none;fill-rule:nonzero;stroke:black;stroke-width:1px;"/>
    <path d="M451.147,358.633L451.147,354.47" style="fill:none;fill-rule:nonzero;stroke:black;stroke-width:1px;"/>
    <path d="M476.272,358.633L476.272,354.47" style="fill:none;fill-rule:nonzero;stroke:black;stroke-width:1px;"/>
    <path d="M504.087,358.633L504.087,354.47" style="fill:none;fill-rule:nonzero;stroke:black;stroke-width:1px;"/>
    <path d="M531.005,358.633L531.005,354.47" style="fill:none;fill-rule:nonzero;stroke:black;stroke-width:1px;"/>
    <path d="M558.82,358.633L558.82,354.47" style="fill:none;fill-rule:nonzero;stroke:black;stroke-width:1px;"/>
    <path d="M585.74,358.633L585.74,354.47" style="fill:none;fill-rule:nonzero;stroke:black;stroke-width:1px;"/>
    <g transform="matrix(1,0,0,1,91.9297,374.252)">
        <text x="0px" y="0px" style="font-family:'ArialMT', 'Arial', sans-serif;font-size:12px;">J</text>
    </g>
    <g transform="matrix(1,0,0,1,119.08,374.252)">
        <text x="0px" y="0px" style="font-family:'ArialMT', 'Arial', sans-serif;font-size:12px;">F</text>
    </g>
    <g transform="matrix(1,0,0,1,143.768,374.252)">
        <text x="0px" y="0px" style="font-family:'ArialMT', 'Arial', sans-serif;font-size:12px;">M</text>
    </g>
    <g transform="matrix(1,0,0,1,172.58,374.252)">
        <text x="0px" y="0px" style="font-family:'ArialMT', 'Arial', sans-serif;font-size:12px;">A</text>
    </g>
    <g transform="matrix(1,0,0,1,198.502,374.252)">
        <text x="0px" y="0px" style="font-family:'ArialMT', 'Arial', sans-serif;font-size:12px;">M</text>
    </g>
    <g transform="matrix(1,0,0,1,228.315,374.252)">
        <text x="0px" y="0px" style="font-family:'ArialMT', 'Arial', sans-serif;font-size:12px;">J</text>
    </g>
    <g transform="matrix(1,0,0,1,255.235,374.252)">
        <text x="0px" y="0px" style="font-family:'ArialMT', 'Arial', sans-serif;font-size:12px;">J</text>
    </g>
    <g transform="matrix(1,0,0,1,282.048,374.252)">
        <text x="0px" y="0px" style="font-family:'ArialMT', 'Arial', sans-serif;font-size:12px;">A</text>
    </g>
    <g transform="matrix(1,0,0,1,309.863,374.252)">
        <text x="0px" y="0px" style="font-family:'ArialMT', 'Arial', sans-serif;font-size:12px;">S</text>
    </g>
    <g transform="matrix(1,0,0,1,336.116,374.252)">
        <text x="0px" y="0px" style="font-family:'ArialMT', 'Arial', sans-serif;font-size:12px;">O</text>
    </g>
    <g transform="matrix(1,0,0,1,364.265,374.252)">
        <text x="0px" y="0px" style="font-family:'ArialMT', 'Arial', sans-serif;font-size:12px;">N</text>
    </g>
    <g transform="matrix(1,0,0,1,391.184,374.252)">
        <text x="0px" y="0px" style="font-family:'ArialMT', 'Arial', sans-serif;font-size:12px;">D</text>
    </g>
    <g transform="matrix(1,0,0,1,420.332,374.252)">
        <text x="0px" y="0px" style="font-family:'ArialMT', 'Arial', sans-serif;font-size:12px;">J</text>
    </g>
    <g transform="matrix(1,0,0,1,447.482,374.252)">
        <text x="0px" y="0px" style="font-family:'ArialMT', 'Arial', sans-serif;font-size:12px;">F</text>
    </g>
    <g transform="matrix(1,0,0,1,471.274,374.252)">
        <text x="0px" y="0px" style="font-family:'ArialMT', 'Arial', sans-serif;font-size:12px;">M</text>
    </g>
    <g transform="matrix(1,0,0,1,500.085,374.252)">
        <text x="0px" y="0px" style="font-family:'ArialMT', 'Arial', sans-serif;font-size:12px;">A</text>
    </g>
    <g transform="matrix(1,0,0,1,526.007,374.252)">
        <text x="0px" y="0px" style="font-family:'ArialMT', 'Arial', sans-serif;font-size:12px;">M</text>
    </g>
    <g transform="matrix(1,0,0,1,555.82,374.252)">
        <text x="0px" y="0px" style="font-family:'ArialMT', 'Arial', sans-serif;font-size:12px;">J</text>
    </g>
    <g transform="matrix(1,0,0,1,582.74,374.252)">
        <text x="0px" y="0px" style="font-family:'ArialMT', 'Arial', sans-serif;font-size:12px;">J</text>
    </g>
    <g transform="matrix(1,0,0,1,228.333,394.375)">
        <text x="0px" y="0px" style="font-family:'ArialMT', 'Arial', sans-serif;font-size:14.75px;">2020                                                      2021</text>
    </g>
    <path d="M79.398,344.428L628.19,344.428" style="fill:none;fill-rule:nonzero;stroke:black;stroke-opacity:0.1;stroke-width:0.5px;"/>
    <path d="M79.398,282.258L628.19,282.258" style="fill:none;fill-rule:nonzero;stroke:black;stroke-opacity:0.1;stroke-width:0.5px;"/>
    <path d="M79.398,220.09L628.19,220.09" style="fill:none;fill-rule:nonzero;stroke:black;stroke-opacity:0.1;stroke-width:0.5px;"/>
    <path d="M79.398,157.921L628.19,157.921" style="fill:none;fill-rule:nonzero;stroke:black;stroke-opacity:0.1;stroke-width:0.5px;"/>
    <path d="M79.398,95.752L628.19,95.752" style="fill:none;fill-rule:nonzero;stroke:black;stroke-opacity:0.1;stroke-width:0.5px;"/>
    <path d="M79.398,33.583L628.19,33.583" style="fill:none;fill-rule:nonzero;stroke:black;stroke-opacity:0.1;stroke-width:0.5px;"/>
    <path d="M79.398,358.633L79.398,11.811" style="fill:none;fill-rule:nonzero;stroke:black;stroke-width:1px;"/>
    <path d="M79.398,344.428L85.984,344.428" style="fill:none;fill-rule:nonzero;stroke:black;stroke-width:1px;"/>
    <path d="M79.398,282.258L85.984,282.258" style="fill:none;fill-rule:nonzero;stroke:black;stroke-width:1px;"/>
    <path d="M79.398,220.09L85.984,220.09" style="fill:none;fill-rule:nonzero;stroke:black;stroke-width:1px;"/>
    <path d="M79.398,157.921L85.984,157.921" style="fill:none;fill-rule:nonzero;stroke:black;stroke-width:1px;"/>
    <path d="M79.398,95.752L85.984,95.752" style="fill:none;fill-rule:nonzero;stroke:black;stroke-width:1px;"/>
    <path d="M79.398,33.583L85.984,33.583" style="fill:none;fill-rule:nonzero;stroke:black;stroke-width:1px;"/>
    <g transform="matrix(1,0,0,1,63.124,348.803)">
        <text x="0px" y="0px" style="font-family:'ArialMT', 'Arial', sans-serif;font-size:12px;">0</text>
    </g>
    <g transform="matrix(1,0,0,1,33.095,286.632)">
        <text x="0px" y="0px" style="font-family:'ArialMT', 'Arial', sans-serif;font-size:12px;">50,000</text>
    </g>
    <g transform="matrix(1,0,0,1,26.421,224.465)">
        <text x="0px" y="0px" style="font-family:'ArialMT', 'Arial', sans-serif;font-size:12px;">100,000</text>
    </g>
    <g transform="matrix(1,0,0,1,26.421,162.296)">
        <text x="0px" y="0px" style="font-family:'ArialMT', 'Arial', sans-serif;font-size:12px;">150,000</text>
    </g>
    <g transform="matrix(1,0,0,1,26.421,100.127)">
        <text x="0px" y="0px" style="font-family:'ArialMT', 'Arial', sans-serif;font-size:12px;">200,000</text>
    </g>
    <g transform="matrix(1,0,0,1,26.421,37.9582)">
        <text x="0px" y="0px" style="font-family:'ArialMT', 'Arial', sans-serif;font-size:12px;">250,000</text>
    </g>
    <g transform="matrix(-3.82857e-16,-1,1,-3.82857e-16,13.8905,258.186)">
        <text x="0px" y="0px" style="font-family:'ArialMT', 'Arial', sans-serif;font-size:14.75px;">daily new Covid cases</text>
    </g>
    <path d="M112.875,344.428L136.205,344.428L137.102,344.425L144.28,344.425L145.177,344.423L146.972,344.423L148.766,344.418L149.664,344.418L150.561,344.413L151.458,344.41L152.356,344.398L153.253,344.385L155.047,344.345L155.945,344.313L156.842,344.27L157.739,344.233L158.636,344.173L159.534,344.087L160.431,343.99L161.328,343.885L162.226,343.76L163.123,343.56L164.02,343.168L164.917,342.523L165.815,341.623L166.712,340.585L167.609,339.193L168.506,337.5L169.404,335.895L170.301,333.73L171.198,331.43L172.095,329.35L172.993,326.765L173.89,324.993L174.787,323.033L175.685,320.533L176.582,318.348L177.479,316.09L178.376,313.428L179.274,310.935L180.171,309.675L181.068,307.995L181.966,306.96L182.863,306.092L183.76,305.208L184.657,305.003L185.555,305.603L186.452,305.33L187.349,306.245L188.246,306.893L189.144,307.21L190.041,307.758L190.938,308.108L191.836,308.698L192.733,309.018L193.63,308.73L194.527,308.938L195.425,309.152L196.322,308.768L197.219,307.837L198.117,306.77L199.014,306.523L199.911,307.268L200.808,307.42L201.706,307.825L202.603,308.433L203.5,308.925L204.397,309.803L205.295,309.908L206.192,310.128L207.089,310.295L207.987,310.658L208.884,310.993L209.781,312.115L210.678,312.933L211.576,313.967L212.473,314.738L213.37,314.988L214.267,315.585L215.165,315.855L216.062,316.105L216.959,316.32L217.857,316.553L218.754,315.805L219.651,316.04L220.548,315.698L221.446,315.915L222.343,316.348L223.24,316.595L224.137,316.415L225.035,316.9L225.932,317.27L226.829,318.038L227.726,318.61L228.624,318.478L229.521,318.275L230.418,318.17L231.315,317.673L232.213,317.335L233.11,317.115L234.007,317.275L234.905,316.535L235.802,316.693L236.699,317.05L237.597,317.705L238.494,318.058L239.391,317.55L240.288,317.268L241.185,317.837L242.083,317.337L242.98,317.248L243.878,316.908L244.775,315.828L245.672,315.33L246.569,314.467L247.467,313.518L248.364,312.33L249.261,311.043L250.158,309.203L251.055,307.395L251.952,305.383L252.85,303.053L253.748,300.445L254.645,298.62L255.542,296.288L256.44,294.683L257.337,292.315L258.235,290.01L259.13,287.453L260.027,285.388L260.925,284.02L261.823,283.085L262.72,281.698L263.618,280.685L264.515,279L265.413,278.233L266.31,276.265L267.208,274.363L268.105,272.045L269,269.515L269.898,267.467L270.795,265.89L271.693,263.085L272.59,262.605L273.488,262.298L274.385,261.503L275.283,261.803L276.18,261.86L277.078,261.613L277.975,262.62L278.87,262.158L279.768,261.39L280.665,262.823L281.563,262.948L282.46,263.33L283.358,263.855L284.255,264.045L285.152,264.833L286.05,266.6L286.948,267.208L287.845,269.285L288.74,270.985L289.638,273.305L290.535,275.335L291.433,276.743L292.33,277.025L293.228,277.438L294.125,277.493L295.023,277.525L295.92,277.428L296.818,278.04L297.715,278.34L298.61,279.138L299.508,280.265L300.405,281.978L301.303,283.777L302.2,285.777L303.098,287.205L303.995,289.06L304.893,290.075L305.79,291.818L306.688,291.305L307.585,292.025L308.48,291.615L309.378,291.69L310.275,292.128L311.173,292.203L312.07,292.008L312.967,292.703L313.865,291.838L314.763,294.125L315.66,293.985L316.558,293.003L317.455,293.42L318.35,294.03L319.248,296.043L320.145,298.725L321.043,298.568L321.94,300.048L322.837,300.853L323.735,301.413L324.633,300.818L325.53,298.735L326.428,296.91L327.325,295.858L328.22,294.57L329.118,294.335L330.015,293.853L330.913,293.318L331.81,292.445L332.708,292.823L333.605,292.35L334.503,292.373L335.4,291.193L336.298,291.008L337.195,290.813L338.09,291.838L338.988,290.717L339.885,290.625L340.783,290.41L341.68,290.588L342.578,289.685L343.475,290.083L344.373,285.633L345.27,285.78L346.168,283.835L347.065,282.065L347.96,281.108L348.858,280.42L349.755,278.695L350.652,281.253L351.55,279.203L352.448,277.99L353.345,276.395L354.243,274.353L355.14,274.155L356.038,273.605L356.935,270.51L357.83,269.408L358.728,268.63L359.625,266.893L360.523,264.258L361.42,259.673L362.318,257.57L363.215,255.938L364.113,253.488L365.01,250.353L365.908,247.592L366.805,245.004L367.7,244.004L368.598,241.432L369.495,237.992L370.393,234.79L371.29,230.137L372.188,224.687L373.085,218.833L373.983,211.422L374.88,206.232L375.777,199.759L376.675,191.351L377.573,185.17L378.467,177.656L379.365,169.011L380.263,163.131L381.16,157.487L382.058,151.072L382.955,147.186L383.853,141.963L384.75,137.726L385.648,134.641L386.545,132.35L387.443,131.354L388.337,129.034L389.235,126.152L390.133,124.676L391.03,139.688L391.928,138.448L392.825,142.094L393.723,142.923L394.62,145.049L395.518,143.917L396.415,140.261L397.313,119.88L398.208,115.345L399.105,105.7L400.003,99.341L400.9,92.793L401.798,86.49L402.695,83.196L403.592,81.866L404.49,86.052L405.388,85.674L406.285,83.126L407.183,83.88L408.078,87.312L408.975,82.108L409.873,79.521L410.77,72.747L411.668,75.168L412.565,75.933L413.462,75.82L414.36,76.09L415.258,79.121L416.155,86.971L417.053,113.661L417.948,109.584L418.845,114.525L419.743,116.747L420.64,116.855L421.538,116.644L422.435,109.981L423.333,101.754L424.23,88.477L425.128,79.65L426.025,68.492L426.923,62.455L427.818,57.656L428.715,48.897L429.613,21.627L430.51,28.677L431.408,27.52L432.305,32.051L433.203,32.947L434.1,37.679L434.998,44.928L435.895,55.75L436.793,64.582L437.688,71.368L438.585,86.498L439.483,94.142L440.38,101.929L441.277,110.639L442.175,119.217L443.073,125.305L443.97,132.484L444.868,129.741L445.765,136.19L446.663,141.469L447.558,145.786L448.455,150.573L449.353,156.633L450.25,159.454L451.147,162.069L452.045,168.354L452.943,174.675L453.84,181.876L454.738,188.113L455.635,193.238L456.533,197.947L457.428,206.628L458.325,209.979L459.223,214.457L460.12,218.009L461.018,223.315L461.915,226.92L462.813,231.095L463.71,237.792L464.608,243.45L465.505,247.857L466.402,253.87L467.298,257.71L468.195,260.363L469.092,261.89L469.99,261.145L470.888,259.835L471.785,259.118L472.683,258.038L473.58,257.983L474.478,259.235L475.375,259.993L476.272,260.485L477.168,263.02L478.065,264.368L478.962,266.25L479.86,268.493L480.758,269.573L481.655,271.498L482.553,271.092L483.45,271.455L484.348,273.198L485.245,274.213L486.143,274.53L487.038,275.985L487.935,276.415L488.833,275.978L489.73,276.223L490.628,276.09L491.525,276.43L492.423,277.06L493.32,276.195L494.217,276.87L495.115,277.305L496.013,276.913L496.91,273.188L497.805,271.65L498.703,269.185L499.6,268.07L500.498,266.238L501.395,263.393L502.293,262.418L503.19,264.543L504.087,263.108L504.985,264.158L505.883,263.548L506.78,264.913L507.675,263.873L508.573,263.92L509.47,263.005L510.368,262.425L511.265,260.118L512.163,260.008L513.06,258.025L513.958,258.853L514.855,256.128L515.753,255.655L516.65,256.855L517.545,257.43L518.443,259.363L519.34,260.53L520.237,260.827L521.135,263.723L522.033,266.078L522.93,267.4L523.828,269.99L524.725,270.595L525.622,271.98L526.52,276.053L527.415,277.678L528.313,279.04L529.21,280.58L530.108,281.515L531.005,282.53L531.903,283.233L532.8,282.768L533.698,284.708L534.595,286.503L535.492,288.26L536.39,290.217L537.285,292.188L538.183,293.485L539.08,295.863L539.978,297.09L541.773,300.375L542.67,301.533L543.568,302.353L544.465,303.35L545.363,304.655L546.26,305.753L547.155,306.94L548.053,308.508L548.95,310.635L549.848,312.54L550.745,312.995L551.643,313.63L552.54,314.523L553.438,315.485L554.335,315.818L555.233,317.058L556.13,318.258L557.025,319.45L557.923,323.023L558.82,323.045L559.718,324.205L560.615,325.675L561.513,327.115L562.41,327.345L563.308,327.613L564.205,324.723L565.103,326.49L566,325.7L566.895,326.462L567.793,326.04L568.69,326.425L569.588,326.313L570.485,327.083L571.383,327.493L572.28,328.605L573.178,329.245L574.075,329.975L574.973,330.1L575.87,330.583L576.765,330.455L577.663,330.298L578.56,330.363L579.458,329.92L580.355,329.52L581.253,329.66L582.15,329.655L583.048,329.708L583.945,329.18L584.843,328.835L585.74,328.513L586.635,327.5L587.533,327.873L588.43,327.978L589.328,329.815L590.225,328.402L591.122,325.48L592.02,324.31L592.918,321.733L593.815,321.038L594.713,320.543L595.61,315.643L596.505,312.49L597.403,311.425L598.3,309.212L599.198,306.243L600.095,305.533L600.992,304.958L601.89,300.865L602.788,297.21L602.788,344.428L112.875,344.428Z" style="fill:rgb(204,25,25);fill-opacity:0.2;"/>
    <path d="M112.875,344.428L136.205,344.428L137.102,344.425L144.28,344.425L145.177,344.423L146.972,344.423L148.766,344.418L149.664,344.418L150.561,344.413L151.458,344.41L152.356,344.398L153.253,344.385L155.047,344.345L155.945,344.313L156.842,344.27L157.739,344.233L158.636,344.173L159.534,344.087L160.431,343.99L161.328,343.885L162.226,343.76L163.123,343.56L164.02,343.168L164.917,342.523L165.815,341.623L166.712,340.585L167.609,339.193L168.506,337.5L169.404,335.895L170.301,333.73L171.198,331.43L172.095,329.35L172.993,326.765L173.89,324.993L174.787,323.033L175.685,320.533L176.582,318.348L177.479,316.09L178.376,313.428L179.274,310.935L180.171,309.675L181.068,307.995L181.966,306.96L182.863,306.092L183.76,305.208L184.657,305.003L185.555,305.603L186.452,305.33L187.349,306.245L188.246,306.893L189.144,307.21L190.041,307.758L190.938,308.108L191.836,308.698L192.733,309.018L193.63,308.73L194.527,308.938L195.425,309.152L196.322,308.768L197.219,307.837L198.117,306.77L199.014,306.523L199.911,307.268L200.808,307.42L201.706,307.825L202.603,308.433L203.5,308.925L204.397,309.803L205.295,309.908L206.192,310.128L207.089,310.295L207.987,310.658L208.884,310.993L209.781,312.115L210.678,312.933L211.576,313.967L212.473,314.738L213.37,314.988L214.267,315.585L215.165,315.855L216.062,316.105L216.959,316.32L217.857,316.553L218.754,315.805L219.651,316.04L220.548,315.698L221.446,315.915L222.343,316.348L223.24,316.595L224.137,316.415L225.035,316.9L225.932,317.27L226.829,318.038L227.726,318.61L228.624,318.478L229.521,318.275L230.418,318.17L231.315,317.673L232.213,317.335L233.11,317.115L234.007,317.275L234.905,316.535L235.802,316.693L236.699,317.05L237.597,317.705L238.494,318.058L239.391,317.55L240.288,317.268L241.185,317.837L242.083,317.337L242.98,317.248L243.878,316.908L244.775,315.828L245.672,315.33L246.569,314.467L247.467,313.518L248.364,312.33L249.261,311.043L250.158,309.203L251.055,307.395L251.952,305.383L252.85,303.053L253.748,300.445L254.645,298.62L255.542,296.288L256.44,294.683L257.337,292.315L258.235,290.01L259.13,287.453L260.027,285.388L260.925,284.02L261.823,283.085L262.72,281.698L263.618,280.685L264.515,279L265.413,278.233L266.31,276.265L267.208,274.363L268.105,272.045L269,269.515L269.898,267.467L270.795,265.89L271.693,263.085L272.59,262.605L273.488,262.298L274.385,261.503L275.283,261.803L276.18,261.86L277.078,261.613L277.975,262.62L278.87,262.158L279.768,261.39L280.665,262.823L281.563,262.948L282.46,263.33L283.358,263.855L284.255,264.045L285.152,264.833L286.05,266.6L286.948,267.208L287.845,269.285L288.74,270.985L289.638,273.305L290.535,275.335L291.433,276.743L292.33,277.025L293.228,277.438L294.125,277.493L295.023,277.525L295.92,277.428L296.818,278.04L297.715,278.34L298.61,279.138L299.508,280.265L300.405,281.978L301.303,283.777L302.2,285.777L303.098,287.205L303.995,289.06L304.893,290.075L305.79,291.818L306.688,291.305L307.585,292.025L308.48,291.615L309.378,291.69L310.275,292.128L311.173,292.203L312.07,292.008L312.967,292.703L313.865,291.838L314.763,294.125L315.66,293.985L316.558,293.003L317.455,293.42L318.35,294.03L319.248,296.043L320.145,298.725L321.043,298.568L321.94,300.048L322.837,300.853L323.735,301.413L324.633,300.818L325.53,298.735L326.428,296.91L327.325,295.858L328.22,294.57L329.118,294.335L330.015,293.853L330.913,293.318L331.81,292.445L332.708,292.823L333.605,292.35L334.503,292.373L335.4,291.193L336.298,291.008L337.195,290.813L338.09,291.838L338.988,290.717L339.885,290.625L340.783,290.41L341.68,290.588L342.578,289.685L343.475,290.083L344.373,285.633L345.27,285.78L346.168,283.835L347.065,282.065L347.96,281.108L348.858,280.42L349.755,278.695L350.652,281.253L351.55,279.203L352.448,277.99L353.345,276.395L354.243,274.353L355.14,274.155L356.038,273.605L356.935,270.51L357.83,269.408L358.728,268.63L359.625,266.893L360.523,264.258L361.42,259.673L362.318,257.57L363.215,255.938L364.113,253.488L365.01,250.353L365.908,247.592L366.805,245.004L367.7,244.004L368.598,241.432L369.495,237.992L370.393,234.79L371.29,230.137L372.188,224.687L373.085,218.833L373.983,211.422L374.88,206.232L375.777,199.759L376.675,191.351L377.573,185.17L378.467,177.656L379.365,169.011L380.263,163.131L381.16,157.487L382.058,151.072L382.955,147.186L383.853,141.963L384.75,137.726L385.648,134.641L386.545,132.35L387.443,131.354L388.337,129.034L389.235,126.152L390.133,124.676L391.03,139.688L391.928,138.448L392.825,142.094L393.723,142.923L394.62,145.049L395.518,143.917L396.415,140.261L397.313,119.88L398.208,115.345L399.105,105.7L400.003,99.341L400.9,92.793L401.798,86.49L402.695,83.196L403.592,81.866L404.49,86.052L405.388,85.674L406.285,83.126L407.183,83.88L408.078,87.312L408.975,82.108L409.873,79.521L410.77,72.747L411.668,75.168L412.565,75.933L413.462,75.82L414.36,76.09L415.258,79.121L416.155,86.971L417.053,113.661L417.948,109.584L418.845,114.525L419.743,116.747L420.64,116.855L421.538,116.644L422.435,109.981L423.333,101.754L424.23,88.477L425.128,79.65L426.025,68.492L426.923,62.455L427.818,57.656L428.715,48.897L429.613,21.627L430.51,28.677L431.408,27.52L432.305,32.051L433.203,32.947L434.1,37.679L434.998,44.928L435.895,55.75L436.793,64.582L437.688,71.368L438.585,86.498L439.483,94.142L440.38,101.929L441.277,110.639L442.175,119.217L443.073,125.305L443.97,132.484L444.868,129.741L445.765,136.19L446.663,141.469L447.558,145.786L448.455,150.573L449.353,156.633L450.25,159.454L451.147,162.069L452.045,168.354L452.943,174.675L453.84,181.876L454.738,188.113L455.635,193.238L456.533,197.947L457.428,206.628L458.325,209.979L459.223,214.457L460.12,218.009L461.018,223.315L461.915,226.92L462.813,231.095L463.71,237.792L464.608,243.45L465.505,247.857L466.402,253.87L467.298,257.71L468.195,260.363L469.092,261.89L469.99,261.145L470.888,259.835L471.785,259.118L472.683,258.038L473.58,257.983L474.478,259.235L475.375,259.993L476.272,260.485L477.168,263.02L478.065,264.368L478.962,266.25L479.86,268.493L480.758,269.573L481.655,271.498L482.553,271.092L483.45,271.455L484.348,273.198L485.245,274.213L486.143,274.53L487.038,275.985L487.935,276.415L488.833,275.978L489.73,276.223L490.628,276.09L491.525,276.43L492.423,277.06L493.32,276.195L494.217,276.87L495.115,277.305L496.013,276.913L496.91,273.188L497.805,271.65L498.703,269.185L499.6,268.07L500.498,266.238L501.395,263.393L502.293,262.418L503.19,264.543L504.087,263.108L504.985,264.158L505.883,263.548L506.78,264.913L507.675,263.873L508.573,263.92L509.47,263.005L510.368,262.425L511.265,260.118L512.163,260.008L513.06,258.025L513.958,258.853L514.855,256.128L515.753,255.655L516.65,256.855L517.545,257.43L518.443,259.363L519.34,260.53L520.237,260.827L521.135,263.723L522.033,266.078L522.93,267.4L523.828,269.99L524.725,270.595L525.622,271.98L526.52,276.053L527.415,277.678L528.313,279.04L529.21,280.58L530.108,281.515L531.005,282.53L531.903,283.233L532.8,282.768L533.698,284.708L534.595,286.503L535.492,288.26L536.39,290.217L537.285,292.188L538.183,293.485L539.08,295.863L539.978,297.09L541.773,300.375L542.67,301.533L543.568,302.353L544.465,303.35L545.363,304.655L546.26,305.753L547.155,306.94L548.053,308.508L548.95,310.635L549.848,312.54L550.745,312.995L551.643,313.63L552.54,314.523L553.438,315.485L554.335,315.818L555.233,317.058L556.13,318.258L557.025,319.45L557.923,323.023L558.82,323.045L559.718,324.205L560.615,325.675L561.513,327.115L562.41,327.345L563.308,327.613L564.205,324.723L565.103,326.49L566,325.7L566.895,326.462L567.793,326.04L568.69,326.425L569.588,326.313L570.485,327.083L571.383,327.493L572.28,328.605L573.178,329.245L574.075,329.975L574.973,330.1L575.87,330.583L576.765,330.455L577.663,330.298L578.56,330.363L579.458,329.92L580.355,329.52L581.253,329.66L582.15,329.655L583.048,329.708L583.945,329.18L584.843,328.835L585.74,328.513L586.635,327.5L587.533,327.873L588.43,327.978L589.328,329.815L590.225,328.402L591.122,325.48L592.02,324.31L592.918,321.733L593.815,321.038L594.713,320.543L595.61,315.643L596.505,312.49L597.403,311.425L598.3,309.212L599.198,306.243L600.095,305.533L600.992,304.958L601.89,300.865L602.788,297.21" style="fill:none;fill-rule:nonzero;stroke:rgb(204,25,25);stroke-opacity:0.2;stroke-width:1.5px;"/>
    <path d="M112.875,340.83L113.772,340.86L114.67,340.92L115.567,341.013L116.465,341.135L117.362,341.283L118.259,341.46L119.156,341.665L120.054,341.893L120.951,342.145L121.848,342.42L122.745,342.712L123.643,343.023L124.54,343.348L125.437,343.688L126.335,344.035L127.232,344.393L128.129,344.753L129.923,345.478L130.821,345.835L131.718,346.185L132.615,346.527L133.513,346.855L134.41,347.17L135.307,347.462L136.205,347.735L137.102,347.985L137.999,348.205L138.896,348.395L139.794,348.555L140.691,348.678L141.588,348.765L142.485,348.81L143.383,348.815L144.28,348.777L145.177,348.695L146.075,348.565L146.972,348.388L147.869,348.16L148.766,347.885L149.664,347.558L150.561,347.183L151.458,346.753L152.356,346.275L153.253,345.745L154.15,345.165L155.047,344.535L155.945,343.858L156.842,343.13L157.739,342.36L158.636,341.545L159.534,340.688L160.431,339.79L161.328,338.853L162.226,337.883L163.123,336.878L164.02,335.842L164.917,334.783L165.815,333.698L166.712,332.59L167.609,331.467L168.506,330.33L169.404,329.18L170.301,328.025L172.095,325.71L172.993,324.558L173.89,323.413L174.787,322.277L175.685,321.16L176.582,320.06L177.479,318.985L178.376,317.933L179.274,316.913L180.171,315.923L181.068,314.97L181.966,314.055L182.863,313.183L183.76,312.355L184.657,311.575L185.555,310.842L186.452,310.16L187.349,309.53L188.246,308.958L189.144,308.438L190.041,307.978L190.938,307.575L191.836,307.23L192.733,306.943L193.63,306.715L194.527,306.548L195.425,306.438L196.322,306.385L197.219,306.39L198.117,306.45L199.014,306.563L199.911,306.728L200.808,306.945L201.706,307.208L202.603,307.518L203.5,307.87L204.397,308.263L205.295,308.693L206.192,309.158L207.089,309.65L207.987,310.173L208.884,310.717L209.781,311.28L210.678,311.86L211.576,312.45L212.473,313.048L214.267,314.248L215.165,314.845L216.062,315.43L216.959,316.003L217.857,316.558L218.754,317.092L219.651,317.6L220.548,318.078L221.446,318.525L222.343,318.933L223.24,319.3L224.137,319.625L225.035,319.902L225.932,320.133L226.829,320.308L227.726,320.428L228.624,320.49L229.521,320.493L230.418,320.433L231.315,320.31L232.213,320.125L233.11,319.873L234.007,319.553L234.905,319.168L235.802,318.715L236.699,318.195L237.597,317.61L238.494,316.958L239.391,316.238L240.288,315.455L241.185,314.61L242.083,313.705L242.98,312.74L243.878,311.717L244.775,310.643L245.672,309.513L246.569,308.337L247.467,307.115L248.364,305.85L249.261,304.548L250.158,303.208L251.055,301.84L251.952,300.443L252.85,299.023L253.748,297.585L254.645,296.13L255.542,294.668L257.337,291.728L258.235,290.263L259.13,288.803L260.027,287.355L260.925,285.925L261.823,284.518L262.72,283.135L263.618,281.78L264.515,280.46L265.413,279.18L266.31,277.94L267.208,276.745L268.105,275.6L269,274.505L269.898,273.467L270.795,272.49L271.693,271.573L272.59,270.72L273.488,269.933L274.385,269.215L275.283,268.568L276.18,267.99L277.078,267.488L277.975,267.06L278.87,266.705L279.768,266.428L280.665,266.225L281.563,266.098L282.46,266.048L283.358,266.07L284.255,266.168L285.152,266.338L286.05,266.58L286.948,266.893L287.845,267.273L288.74,267.72L289.638,268.23L290.535,268.803L291.433,269.435L292.33,270.123L293.228,270.863L294.125,271.652L295.023,272.488L295.92,273.368L296.818,274.285L297.715,275.238L298.61,276.223L299.508,277.238L300.405,278.273L301.303,279.33L302.2,280.402L303.098,281.485L303.995,282.578L304.893,283.673L305.79,284.765L306.688,285.853L307.585,286.933L308.48,288L309.378,289.05L310.275,290.08L311.173,291.085L312.07,292.06L312.967,293.005L313.865,293.915L314.763,294.788L315.66,295.618L316.558,296.402L317.455,297.14L318.35,297.828L319.248,298.46L320.145,299.04L321.043,299.56L321.94,300.02L322.837,300.418L323.735,300.753L324.633,301.02L325.53,301.223L326.428,301.355L327.325,301.418L328.22,301.41L329.118,301.33L330.015,301.178L330.913,300.953L331.81,300.652L332.708,300.277L333.605,299.828L334.503,299.303L335.4,298.705L336.298,298.03L337.195,297.28L338.09,296.455L338.988,295.555L339.885,294.58L340.783,293.533L341.68,292.41L342.578,291.215L343.475,289.948L344.373,288.608L345.27,287.195L346.168,285.71L347.065,284.158L347.96,282.533L348.858,280.84L349.755,279.078L350.652,277.248L351.55,275.353L352.448,273.388L353.345,271.358L354.243,269.263L355.14,267.103L356.038,264.878L356.935,262.59L357.83,260.238L358.728,257.825L359.625,255.353L360.523,252.815L361.42,250.22L362.318,247.566L363.215,244.853L364.113,242.082L365.01,239.254L365.908,236.369L366.805,233.43L367.7,230.437L368.598,227.39L369.495,224.292L370.393,221.143L371.29,217.945L372.188,214.699L373.085,211.407L373.983,208.07L374.88,204.69L375.777,201.269L376.675,197.81L377.573,194.314L378.467,190.783L379.365,187.221L380.263,183.63L381.16,180.012L382.058,176.372L382.955,172.711L383.853,169.034L384.75,165.343L385.648,161.644L386.545,157.939L387.443,154.232L388.337,150.529L389.235,146.833L390.133,143.149L391.03,139.482L391.928,135.837L392.825,132.219L393.723,128.632L394.62,125.083L395.518,121.578L396.415,118.12L397.313,114.717L398.208,111.375L399.105,108.098L400.003,104.894L400.9,101.767L401.798,98.725L402.695,95.772L403.592,92.916L404.49,90.162L405.388,87.516L406.285,84.985L407.183,82.573L408.078,80.287L408.975,78.133L409.873,76.115L410.77,74.24L411.668,72.512L412.565,70.937L413.462,69.518L414.36,68.262L415.258,67.171L416.155,66.25L417.053,65.502L417.948,64.931L418.845,64.54L419.743,64.332L420.64,64.308L421.538,64.472L422.435,64.823L423.333,65.364L424.23,66.095L425.128,67.017L426.025,68.129L426.923,69.431L427.818,70.921L428.715,72.599L429.613,74.461L430.51,76.507L431.408,78.733L432.305,81.135L433.203,83.711L434.1,86.455L434.998,89.364L435.895,92.431L436.793,95.652L437.688,99.021L438.585,102.531L439.483,106.177L440.38,109.95L441.277,113.843L442.175,117.849L443.073,121.96L443.97,126.167L444.868,130.463L445.765,134.837L446.663,139.282L447.558,143.787L448.455,148.345L449.353,152.944L450.25,157.577L451.147,162.232L452.045,166.901L452.943,171.574L453.84,176.242L454.738,180.893L455.635,185.52L456.533,190.113L457.428,194.662L458.325,199.159L459.223,203.594L460.12,207.959L461.018,212.246L461.915,216.446L462.813,220.551L463.71,224.555L464.608,228.451L465.505,232.23L466.402,235.888L467.298,239.419L468.195,242.816L469.092,246.075L469.99,249.192L470.888,252.163L471.785,254.982L472.683,257.65L473.58,260.163L474.478,262.52L475.375,264.715L476.272,266.755L477.168,268.633L478.065,270.35L478.962,271.913L479.86,273.315L480.758,274.563L481.655,275.658L482.553,276.603L483.45,277.4L484.348,278.055L485.245,278.573L486.143,278.955L487.038,279.21L487.935,279.34L488.833,279.353L489.73,279.253L490.628,279.05L491.525,278.75L492.423,278.358L493.32,277.883L494.217,277.333L495.115,276.713L496.013,276.033L496.91,275.303L497.805,274.527L498.703,273.715L499.6,272.875L500.498,272.015L501.395,271.145L502.293,270.27L503.19,269.4L504.087,268.54L504.985,267.7L505.883,266.888L506.78,266.11L507.675,265.373L508.573,264.68L509.47,264.045L510.368,263.467L511.265,262.955L512.163,262.515L513.06,262.15L513.958,261.863L514.855,261.66L515.753,261.548L516.65,261.522L517.545,261.592L518.443,261.755L519.34,262.017L520.237,262.378L521.135,262.838L522.033,263.395L522.93,264.053L523.828,264.81L524.725,265.665L525.622,266.615L526.52,267.66L527.415,268.795L528.313,270.02L529.21,271.33L530.108,272.72L531.005,274.19L531.903,275.733L532.8,277.345L533.698,279.02L534.595,280.755L535.492,282.543L536.39,284.378L537.285,286.253L538.183,288.163L539.08,290.103L539.978,292.065L540.875,294.043L541.773,296.03L542.67,298.023L543.568,300.01L544.465,301.988L545.363,303.95L546.26,305.888L547.155,307.798L548.053,309.673L548.95,311.505L549.848,313.293L550.745,315.03L551.643,316.708L552.54,318.323L553.438,319.873L554.335,321.35L555.233,322.753L556.13,324.078L557.025,325.32L557.923,326.475L558.82,327.545L559.718,328.525L560.615,329.413L561.513,330.208L562.41,330.908L563.308,331.515L564.205,332.027L565.103,332.445L566,332.773L566.895,333.005L567.793,333.148L568.69,333.2L569.588,333.168L570.485,333.05L571.383,332.853L572.28,332.578L573.178,332.23L574.075,331.81L574.973,331.328L575.87,330.783L576.765,330.18L577.663,329.527L578.56,328.828L579.458,328.087L580.355,327.31L581.253,326.503L582.15,325.673L583.048,324.823L583.945,323.958L584.843,323.087L585.74,322.212L586.635,321.342L587.533,320.483L588.43,319.635L589.328,318.81L590.225,318.008L591.122,317.235L592.02,316.495L592.918,315.795L593.815,315.138L594.713,314.527L595.61,313.967L596.505,313.46L597.403,313.01L598.3,312.62L599.198,312.293L600.095,312.025L600.992,311.825L601.89,311.69L602.788,311.623L602.788,344.428L112.875,344.428L112.875,340.83Z" style="fill-opacity:0;"/>
    <path d="M112.875,340.83L113.772,340.86L114.67,340.92L115.567,341.013L116.465,341.135L117.362,341.283L118.259,341.46L119.156,341.665L120.054,341.893L120.951,342.145L121.848,342.42L122.745,342.712L123.643,343.023L124.54,343.348L125.437,343.688L126.335,344.035L127.232,344.393L128.129,344.753L129.923,345.478L130.821,345.835L131.718,346.185L132.615,346.527L133.513,346.855L134.41,347.17L135.307,347.462L136.205,347.735L137.102,347.985L137.999,348.205L138.896,348.395L139.794,348.555L140.691,348.678L141.588,348.765L142.485,348.81L143.383,348.815L144.28,348.777L145.177,348.695L146.075,348.565L146.972,348.388L147.869,348.16L148.766,347.885L149.664,347.558L150.561,347.183L151.458,346.753L152.356,346.275L153.253,345.745L154.15,345.165L155.047,344.535L155.945,343.858L156.842,343.13L157.739,342.36L158.636,341.545L159.534,340.688L160.431,339.79L161.328,338.853L162.226,337.883L163.123,336.878L164.02,335.842L164.917,334.783L165.815,333.698L166.712,332.59L167.609,331.467L168.506,330.33L169.404,329.18L170.301,328.025L172.095,325.71L172.993,324.558L173.89,323.413L174.787,322.277L175.685,321.16L176.582,320.06L177.479,318.985L178.376,317.933L179.274,316.913L180.171,315.923L181.068,314.97L181.966,314.055L182.863,313.183L183.76,312.355L184.657,311.575L185.555,310.842L186.452,310.16L187.349,309.53L188.246,308.958L189.144,308.438L190.041,307.978L190.938,307.575L191.836,307.23L192.733,306.943L193.63,306.715L194.527,306.548L195.425,306.438L196.322,306.385L197.219,306.39L198.117,306.45L199.014,306.563L199.911,306.728L200.808,306.945L201.706,307.208L202.603,307.518L203.5,307.87L204.397,308.263L205.295,308.693L206.192,309.158L207.089,309.65L207.987,310.173L208.884,310.717L209.781,311.28L210.678,311.86L211.576,312.45L212.473,313.048L214.267,314.248L215.165,314.845L216.062,315.43L216.959,316.003L217.857,316.558L218.754,317.092L219.651,317.6L220.548,318.078L221.446,318.525L222.343,318.933L223.24,319.3L224.137,319.625L225.035,319.902L225.932,320.133L226.829,320.308L227.726,320.428L228.624,320.49L229.521,320.493L230.418,320.433L231.315,320.31L232.213,320.125L233.11,319.873L234.007,319.553L234.905,319.168L235.802,318.715L236.699,318.195L237.597,317.61L238.494,316.958L239.391,316.238L240.288,315.455L241.185,314.61L242.083,313.705L242.98,312.74L243.878,311.717L244.775,310.643L245.672,309.513L246.569,308.337L247.467,307.115L248.364,305.85L249.261,304.548L250.158,303.208L251.055,301.84L251.952,300.443L252.85,299.023L253.748,297.585L254.645,296.13L255.542,294.668L257.337,291.728L258.235,290.263L259.13,288.803L260.027,287.355L260.925,285.925L261.823,284.518L262.72,283.135L263.618,281.78L264.515,280.46L265.413,279.18L266.31,277.94L267.208,276.745L268.105,275.6L269,274.505L269.898,273.467L270.795,272.49L271.693,271.573L272.59,270.72L273.488,269.933L274.385,269.215L275.283,268.568L276.18,267.99L277.078,267.488L277.975,267.06L278.87,266.705L279.768,266.428L280.665,266.225L281.563,266.098L282.46,266.048L283.358,266.07L284.255,266.168L285.152,266.338L286.05,266.58L286.948,266.893L287.845,267.273L288.74,267.72L289.638,268.23L290.535,268.803L291.433,269.435L292.33,270.123L293.228,270.863L294.125,271.652L295.023,272.488L295.92,273.368L296.818,274.285L297.715,275.238L298.61,276.223L299.508,277.238L300.405,278.273L301.303,279.33L302.2,280.402L303.098,281.485L303.995,282.578L304.893,283.673L305.79,284.765L306.688,285.853L307.585,286.933L308.48,288L309.378,289.05L310.275,290.08L311.173,291.085L312.07,292.06L312.967,293.005L313.865,293.915L314.763,294.788L315.66,295.618L316.558,296.402L317.455,297.14L318.35,297.828L319.248,298.46L320.145,299.04L321.043,299.56L321.94,300.02L322.837,300.418L323.735,300.753L324.633,301.02L325.53,301.223L326.428,301.355L327.325,301.418L328.22,301.41L329.118,301.33L330.015,301.178L330.913,300.953L331.81,300.652L332.708,300.277L333.605,299.828L334.503,299.303L335.4,298.705L336.298,298.03L337.195,297.28L338.09,296.455L338.988,295.555L339.885,294.58L340.783,293.533L341.68,292.41L342.578,291.215L343.475,289.948L344.373,288.608L345.27,287.195L346.168,285.71L347.065,284.158L347.96,282.533L348.858,280.84L349.755,279.078L350.652,277.248L351.55,275.353L352.448,273.388L353.345,271.358L354.243,269.263L355.14,267.103L356.038,264.878L356.935,262.59L357.83,260.238L358.728,257.825L359.625,255.353L360.523,252.815L361.42,250.22L362.318,247.566L363.215,244.853L364.113,242.082L365.01,239.254L365.908,236.369L366.805,233.43L367.7,230.437L368.598,227.39L369.495,224.292L370.393,221.143L371.29,217.945L372.188,214.699L373.085,211.407L373.983,208.07L374.88,204.69L375.777,201.269L376.675,197.81L377.573,194.314L378.467,190.783L379.365,187.221L380.263,183.63L381.16,180.012L382.058,176.372L382.955,172.711L383.853,169.034L384.75,165.343L385.648,161.644L386.545,157.939L387.443,154.232L388.337,150.529L389.235,146.833L390.133,143.149L391.03,139.482L391.928,135.837L392.825,132.219L393.723,128.632L394.62,125.083L395.518,121.578L396.415,118.12L397.313,114.717L398.208,111.375L399.105,108.098L400.003,104.894L400.9,101.767L401.798,98.725L402.695,95.772L403.592,92.916L404.49,90.162L405.388,87.516L406.285,84.985L407.183,82.573L408.078,80.287L408.975,78.133L409.873,76.115L410.77,74.24L411.668,72.512L412.565,70.937L413.462,69.518L414.36,68.262L415.258,67.171L416.155,66.25L417.053,65.502L417.948,64.931L418.845,64.54L419.743,64.332L420.64,64.308L421.538,64.472L422.435,64.823L423.333,65.364L424.23,66.095L425.128,67.017L426.025,68.129L426.923,69.431L427.818,70.921L428.715,72.599L429.613,74.461L430.51,76.507L431.408,78.733L432.305,81.135L433.203,83.711L434.1,86.455L434.998,89.364L435.895,92.431L436.793,95.652L437.688,99.021L438.585,102.531L439.483,106.177L440.38,109.95L441.277,113.843L442.175,117.849L443.073,121.96L443.97,126.167L444.868,130.463L445.765,134.837L446.663,139.282L447.558,143.787L448.455,148.345L449.353,152.944L450.25,157.577L451.147,162.232L452.045,166.901L452.943,171.574L453.84,176.242L454.738,180.893L455.635,185.52L456.533,190.113L457.428,194.662L458.325,199.159L459.223,203.594L460.12,207.959L461.018,212.246L461.915,216.446L462.813,220.551L463.71,224.555L464.608,228.451L465.505,232.23L466.402,235.888L467.298,239.419L468.195,242.816L469.092,246.075L469.99,249.192L470.888,252.163L471.785,254.982L472.683,257.65L473.58,260.163L474.478,262.52L475.375,264.715L476.272,266.755L477.168,268.633L478.065,270.35L478.962,271.913L479.86,273.315L480.758,274.563L481.655,275.658L482.553,276.603L483.45,277.4L484.348,278.055L485.245,278.573L486.143,278.955L487.038,279.21L487.935,279.34L488.833,279.353L489.73,279.253L490.628,279.05L491.525,278.75L492.423,278.358L493.32,277.883L494.217,277.333L495.115,276.713L496.013,276.033L496.91,275.303L497.805,274.527L498.703,273.715L499.6,272.875L500.498,272.015L501.395,271.145L502.293,270.27L503.19,269.4L504.087,268.54L504.985,267.7L505.883,266.888L506.78,266.11L507.675,265.373L508.573,264.68L509.47,264.045L510.368,263.467L511.265,262.955L512.163,262.515L513.06,262.15L513.958,261.863L514.855,261.66L515.753,261.548L516.65,261.522L517.545,261.592L518.443,261.755L519.34,262.017L520.237,262.378L521.135,262.838L522.033,263.395L522.93,264.053L523.828,264.81L524.725,265.665L525.622,266.615L526.52,267.66L527.415,268.795L528.313,270.02L529.21,271.33L530.108,272.72L531.005,274.19L531.903,275.733L532.8,277.345L533.698,279.02L534.595,280.755L535.492,282.543L536.39,284.378L537.285,286.253L538.183,288.163L539.08,290.103L539.978,292.065L540.875,294.043L541.773,296.03L542.67,298.023L543.568,300.01L544.465,301.988L545.363,303.95L546.26,305.888L547.155,307.798L548.053,309.673L548.95,311.505L549.848,313.293L550.745,315.03L551.643,316.708L552.54,318.323L553.438,319.873L554.335,321.35L555.233,322.753L556.13,324.078L557.025,325.32L557.923,326.475L558.82,327.545L559.718,328.525L560.615,329.413L561.513,330.208L562.41,330.908L563.308,331.515L564.205,332.027L565.103,332.445L566,332.773L566.895,333.005L567.793,333.148L568.69,333.2L569.588,333.168L570.485,333.05L571.383,332.853L572.28,332.578L573.178,332.23L574.075,331.81L574.973,331.328L575.87,330.783L576.765,330.18L577.663,329.527L578.56,328.828L579.458,328.087L580.355,327.31L581.253,326.503L582.15,325.673L583.048,324.823L583.945,323.958L584.843,323.087L585.74,322.212L586.635,321.342L587.533,320.483L588.43,319.635L589.328,318.81L590.225,318.008L591.122,317.235L592.02,316.495L592.918,315.795L593.815,315.138L594.713,314.527L595.61,313.967L596.505,313.46L597.403,313.01L598.3,312.62L599.198,312.293L600.095,312.025L600.992,311.825L601.89,311.69L602.788,311.623" style="fill:none;fill-rule:nonzero;stroke:rgb(65,0,235);stroke-width:2.5px;"/>
    <rect x="112.935" y="103.282" width="202.455" height="37.725" style="fill:white;"/>
    <path d="M112.935,141.007L315.39,141.007L315.39,103.282L112.935,103.282L112.935,141.007" style="fill:none;fill-rule:nonzero;stroke:black;stroke-width:1px;"/>
    <rect x="119.033" y="110.827" width="36.586" height="10.06" style="fill:rgb(204,25,25);fill-opacity:0.2;"/>
    <path d="M119.033,110.827L155.619,110.827" style="fill:none;fill-rule:nonzero;stroke:rgb(204,25,25);stroke-opacity:0.2;stroke-width:1.5px;"/>
    <g transform="matrix(1,0,0,1,161.717,120.232)">
        <text x="0px" y="0px" style="font-family:'ArialMT', 'Arial', sans-serif;font-size:12px;">7-day average case count</text>
    </g>
    <rect x="119.033" y="123.402" width="36.586" height="10.06" style="fill-opacity:0;"/>
    <g transform="matrix(1,0,0,1,0,9)">
        <path d="M119.033,123.402L155.619,123.402" style="fill:none;fill-rule:nonzero;stroke:rgb(65,0,235);stroke-width:2.5px;"/>
    </g>
    <g transform="matrix(1,0,0,1,161.717,135.807)">
        <text x="0px" y="0px" style="font-family:'ArialMT', 'Arial', sans-serif;font-size:12px;">ﬁrst 13 Fourier coefﬁcients</text>
    </g>
</svg>
